solid Mesh
  facet normal -1 0 0
    outer loop
      vertex -0.499594 1.52 1
      vertex -0.499594 8 1
      vertex -0.499594 1.52 0
    endloop
  endfacet
  facet normal -1 0 0
    outer loop
      vertex -0.499594 8 1
      vertex -0.499594 8 0
      vertex -0.499594 1.52 0
    endloop
  endfacet
  facet normal 0 0 -1
    outer loop
      vertex -0.499594 8 0
      vertex 0.500406 8 0
      vertex -0.499594 1.52 0
    endloop
  endfacet
  facet normal 0 0 -1
    outer loop
      vertex 0.500406 8 0
      vertex 0.500406 1.51973 0
      vertex -0.499594 1.52 0
    endloop
  endfacet
  facet normal 0 0 -1
    outer loop
      vertex 1.32629 -0.894965 0
      vertex 1.22146 -1.03345 0
      vertex -0.661408 1.45689 0
    endloop
  endfacet
  facet normal 0 0 -1
    outer loop
      vertex 1.22146 -1.03345 0
      vertex 1.10225 -1.15976 0
      vertex -0.661408 1.45689 0
    endloop
  endfacet
  facet normal 0 0 -1
    outer loop
      vertex -0.661408 1.45689 0
      vertex 1.10225 -1.15976 0
      vertex 0.970045 -1.2724 0
    endloop
  endfacet
  facet normal 0 0 -1
    outer loop
      vertex 0.500406 1.51973 0
      vertex 0.662187 1.45654 0
      vertex -0.499594 1.52 0
    endloop
  endfacet
  facet normal 0 0 -1
    outer loop
      vertex 0.662187 1.45654 0
      vertex 0.816164 1.37618 0
      vertex -0.499594 1.52 0
    endloop
  endfacet
  facet normal 0 0 -1
    outer loop
      vertex -0.499594 1.52 0
      vertex 0.816164 1.37618 0
      vertex 0.960524 1.27961 0
    endloop
  endfacet
  facet normal 0 0 -1
    outer loop
      vertex 0.173004 -1.59062 0
      vertex -0.661408 1.45689 0
      vertex 0.344397 -1.5625 0
    endloop
  endfacet
  facet normal 0 0 -1
    outer loop
      vertex -0.661408 1.45689 0
      vertex 0.511731 -1.51596 0
      vertex 0.344397 -1.5625 0
    endloop
  endfacet
  facet normal 0 0 -1
    outer loop
      vertex 0.173004 -1.59062 0
      vertex -0.000427499 -1.6 0
      vertex -0.661408 1.45689 0
    endloop
  endfacet
  facet normal 0 0 -1
    outer loop
      vertex -0.000427499 -1.6 0
      vertex -0.173854 -1.59053 0
      vertex -0.661408 1.45689 0
    endloop
  endfacet
  facet normal 0 0 -1
    outer loop
      vertex -0.661408 1.45689 0
      vertex -0.173854 -1.59053 0
      vertex -0.345232 -1.56231 0
    endloop
  endfacet
  facet normal 0 0 -1
    outer loop
      vertex -0.661408 1.45689 0
      vertex 1.57977 -0.253612 0
      vertex 1.54297 -0.423354 0
    endloop
  endfacet
  facet normal 0 0 -1
    outer loop
      vertex 0.970045 -1.2724 0
      vertex 0.826409 -1.37005 0
      vertex -0.661408 1.45689 0
    endloop
  endfacet
  facet normal 0 0 -1
    outer loop
      vertex 0.826409 -1.37005 0
      vertex 0.673036 -1.45156 0
      vertex -0.661408 1.45689 0
    endloop
  endfacet
  facet normal 0 0 -1
    outer loop
      vertex -0.661408 1.45689 0
      vertex 0.673036 -1.45156 0
      vertex 0.511731 -1.51596 0
    endloop
  endfacet
  facet normal 0 0 -1
    outer loop
      vertex 0.960524 1.27961 0
      vertex 1.09357 1.16795 0
      vertex -0.499594 1.52 0
    endloop
  endfacet
  facet normal 0 0 -1
    outer loop
      vertex 1.09357 1.16795 0
      vertex 1.21372 1.04254 0
      vertex -0.499594 1.52 0
    endloop
  endfacet
  facet normal 0 0 -1
    outer loop
      vertex -0.499594 1.52 0
      vertex 1.21372 1.04254 0
      vertex 1.31957 0.904836 0
    endloop
  endfacet
  facet normal 0 0 -1
    outer loop
      vertex 1.31957 0.904836 0
      vertex 1.40988 0.756472 0
      vertex -0.499594 1.52 0
    endloop
  endfacet
  facet normal 0 0 -1
    outer loop
      vertex 1.40988 0.756472 0
      vertex 1.48357 0.599194 0
      vertex -0.499594 1.52 0
    endloop
  endfacet
  facet normal 0 0 -1
    outer loop
      vertex -0.499594 1.52 0
      vertex 1.48357 0.599194 0
      vertex 1.53977 0.434855 0
    endloop
  endfacet
  facet normal 0 0 -1
    outer loop
      vertex -1.48325 0.599987 0
      vertex -0.673811 -1.4512 0
      vertex -0.827141 -1.36961 0
    endloop
  endfacet
  facet normal 0 0 -1
    outer loop
      vertex -1.40947 0.757225 0
      vertex -0.345232 -1.56231 0
      vertex -1.48325 0.599987 0
    endloop
  endfacet
  facet normal 0 0 -1
    outer loop
      vertex -0.345232 -1.56231 0
      vertex -0.512541 -1.51569 0
      vertex -1.48325 0.599987 0
    endloop
  endfacet
  facet normal 0 0 -1
    outer loop
      vertex -1.48325 0.599987 0
      vertex -0.512541 -1.51569 0
      vertex -0.673811 -1.4512 0
    endloop
  endfacet
  facet normal 0 0 -1
    outer loop
      vertex 1.54297 -0.423354 0
      vertex 1.48799 -0.588108 0
      vertex -0.661408 1.45689 0
    endloop
  endfacet
  facet normal 0 0 -1
    outer loop
      vertex 1.48799 -0.588108 0
      vertex 1.41548 -0.745931 0
      vertex -0.661408 1.45689 0
    endloop
  endfacet
  facet normal 0 0 -1
    outer loop
      vertex -0.661408 1.45689 0
      vertex 1.41548 -0.745931 0
      vertex 1.32629 -0.894965 0
    endloop
  endfacet
  facet normal 0 0 -1
    outer loop
      vertex 1.53977 0.434855 0
      vertex 1.57784 0.265392 0
      vertex -0.499594 1.52 0
    endloop
  endfacet
  facet normal 0 0 -1
    outer loop
      vertex 1.57784 0.265392 0
      vertex 1.59731 0.0928022 0
      vertex -0.499594 1.52 0
    endloop
  endfacet
  facet normal 0 0 -1
    outer loop
      vertex -0.499594 1.52 0
      vertex 1.59731 0.0928022 0
      vertex -0.661408 1.45689 0
    endloop
  endfacet
  facet normal 0 0 -1
    outer loop
      vertex 1.59731 0.0928022 0
      vertex 1.59795 -0.0808816 0
      vertex -0.661408 1.45689 0
    endloop
  endfacet
  facet normal 0 0 -1
    outer loop
      vertex -0.661408 1.45689 0
      vertex 1.59795 -0.0808816 0
      vertex 1.57977 -0.253612 0
    endloop
  endfacet
  facet normal 0 0 -1
    outer loop
      vertex -0.827141 -1.36961 0
      vertex -0.970724 -1.27189 0
      vertex -1.48325 0.599987 0
    endloop
  endfacet
  facet normal 0 0 -1
    outer loop
      vertex -0.970724 -1.27189 0
      vertex -1.10287 -1.15917 0
      vertex -1.48325 0.599987 0
    endloop
  endfacet
  facet normal 0 0 -1
    outer loop
      vertex -1.48325 0.599987 0
      vertex -1.10287 -1.15917 0
      vertex -1.22202 -1.0328 0
    endloop
  endfacet
  facet normal 0 0 -1
    outer loop
      vertex -1.48831 -0.587313 0
      vertex -1.5432 -0.42253 0
      vertex -1.48325 0.599987 0
    endloop
  endfacet
  facet normal 0 0 -1
    outer loop
      vertex -1.5432 -0.42253 0
      vertex -1.57991 -0.252768 0
      vertex -1.48325 0.599987 0
    endloop
  endfacet
  facet normal 0 0 -1
    outer loop
      vertex -1.48325 0.599987 0
      vertex -1.57991 -0.252768 0
      vertex -1.598 -0.0800277 0
    endloop
  endfacet
  facet normal 0 0 -1
    outer loop
      vertex -1.40947 0.757225 0
      vertex -1.31909 0.905541 0
      vertex -0.345232 -1.56231 0
    endloop
  endfacet
  facet normal 0 0 -1
    outer loop
      vertex -1.31909 0.905541 0
      vertex -1.21316 1.04319 0
      vertex -0.345232 -1.56231 0
    endloop
  endfacet
  facet normal 0 0 -1
    outer loop
      vertex -0.345232 -1.56231 0
      vertex -1.21316 1.04319 0
      vertex -1.09294 1.16854 0
    endloop
  endfacet
  facet normal 0 0 -1
    outer loop
      vertex -1.09294 1.16854 0
      vertex -0.95984 1.28012 0
      vertex -0.345232 -1.56231 0
    endloop
  endfacet
  facet normal 0 0 -1
    outer loop
      vertex -0.95984 1.28012 0
      vertex -0.815428 1.37662 0
      vertex -0.345232 -1.56231 0
    endloop
  endfacet
  facet normal 0 0 -1
    outer loop
      vertex -0.345232 -1.56231 0
      vertex -0.815428 1.37662 0
      vertex -0.661408 1.45689 0
    endloop
  endfacet
  facet normal 0 0 -1
    outer loop
      vertex -1.22202 -1.0328 0
      vertex -1.32677 -0.894256 0
      vertex -1.48325 0.599987 0
    endloop
  endfacet
  facet normal 0 0 -1
    outer loop
      vertex -1.32677 -0.894256 0
      vertex -1.41588 -0.745175 0
      vertex -1.48325 0.599987 0
    endloop
  endfacet
  facet normal 0 0 -1
    outer loop
      vertex -1.48325 0.599987 0
      vertex -1.41588 -0.745175 0
      vertex -1.48831 -0.587313 0
    endloop
  endfacet
  facet normal 0 0 -1
    outer loop
      vertex -1.598 -0.0800277 0
      vertex -1.59726 0.0936558 0
      vertex -1.48325 0.599987 0
    endloop
  endfacet
  facet normal 0 0 -1
    outer loop
      vertex -1.59726 0.0936558 0
      vertex -1.57769 0.266236 0
      vertex -1.48325 0.599987 0
    endloop
  endfacet
  facet normal 0 0 -1
    outer loop
      vertex -1.48325 0.599987 0
      vertex -1.57769 0.266236 0
      vertex -1.53954 0.435678 0
    endloop
  endfacet
  facet normal 0 1 0
    outer loop
      vertex -0.499594 8 1
      vertex 0.500406 8 1
      vertex -0.499594 8 0
    endloop
  endfacet
  facet normal 0 1 0
    outer loop
      vertex 0.500406 8 1
      vertex 0.500406 8 0
      vertex -0.499594 8 0
    endloop
  endfacet
  facet normal -0.363349 0.931653 0
    outer loop
      vertex -0.499594 1.52 1
      vertex -0.499594 1.52 0
      vertex -0.661408 1.45689 0
    endloop
  endfacet
  facet normal -0.363349 0.931653 0
    outer loop
      vertex -0.499594 1.52 1
      vertex -0.661408 1.45689 0
      vertex -0.661408 1.45689 1
    endloop
  endfacet
  facet normal -0.462193 0.88678 0
    outer loop
      vertex -0.661408 1.45689 0
      vertex -0.815428 1.37662 0
      vertex -0.661408 1.45689 1
    endloop
  endfacet
  facet normal -0.462193 0.88678 0
    outer loop
      vertex -0.661408 1.45689 1
      vertex -0.815428 1.37662 0
      vertex -0.815428 1.37662 1
    endloop
  endfacet
  facet normal -0.55559 0.831456 0
    outer loop
      vertex -0.815428 1.37662 0
      vertex -0.95984 1.28012 0
      vertex -0.815428 1.37662 1
    endloop
  endfacet
  facet normal -0.55559 0.831456 0
    outer loop
      vertex -0.815428 1.37662 1
      vertex -0.95984 1.28012 0
      vertex -0.95984 1.28012 1
    endloop
  endfacet
  facet normal -0.642441 0.766335 0
    outer loop
      vertex -0.95984 1.28012 0
      vertex -1.09294 1.16854 0
      vertex -0.95984 1.28012 1
    endloop
  endfacet
  facet normal -0.642441 0.766335 0
    outer loop
      vertex -0.95984 1.28012 1
      vertex -1.09294 1.16854 0
      vertex -1.09294 1.16854 1
    endloop
  endfacet
  facet normal -0.721721 0.692184 0
    outer loop
      vertex -1.09294 1.16854 0
      vertex -1.21316 1.04319 0
      vertex -1.09294 1.16854 1
    endloop
  endfacet
  facet normal -0.721721 0.692184 0
    outer loop
      vertex -1.09294 1.16854 1
      vertex -1.21316 1.04319 0
      vertex -1.21316 1.04319 1
    endloop
  endfacet
  facet normal -0.792497 0.609876 0
    outer loop
      vertex -1.21316 1.04319 0
      vertex -1.31909 0.905541 0
      vertex -1.21316 1.04319 1
    endloop
  endfacet
  facet normal -0.792497 0.609876 0
    outer loop
      vertex -1.21316 1.04319 1
      vertex -1.31909 0.905541 0
      vertex -1.31909 0.905541 1
    endloop
  endfacet
  facet normal -0.853934 0.520381 0
    outer loop
      vertex -1.31909 0.905541 0
      vertex -1.40947 0.757225 0
      vertex -1.31909 0.905541 1
    endloop
  endfacet
  facet normal -0.853934 0.520381 0
    outer loop
      vertex -1.31909 0.905541 1
      vertex -1.40947 0.757225 0
      vertex -1.40947 0.757225 1
    endloop
  endfacet
  facet normal -0.905308 0.424755 0
    outer loop
      vertex -1.40947 0.757225 0
      vertex -1.48325 0.599987 0
      vertex -1.40947 0.757225 1
    endloop
  endfacet
  facet normal -0.905308 0.424755 0
    outer loop
      vertex -1.40947 0.757225 1
      vertex -1.48325 0.599987 0
      vertex -1.48325 0.599987 1
    endloop
  endfacet
  facet normal -0.946015 0.324123 0
    outer loop
      vertex -1.48325 0.599987 0
      vertex -1.53954 0.435678 0
      vertex -1.48325 0.599987 1
    endloop
  endfacet
  facet normal -0.946015 0.324123 0
    outer loop
      vertex -1.48325 0.599987 1
      vertex -1.53954 0.435678 0
      vertex -1.53954 0.435678 1
    endloop
  endfacet
  facet normal -0.975574 0.219672 0
    outer loop
      vertex -1.53954 0.435678 0
      vertex -1.57769 0.266236 0
      vertex -1.53954 0.435678 1
    endloop
  endfacet
  facet normal -0.975574 0.219672 0
    outer loop
      vertex -1.53954 0.435678 1
      vertex -1.57769 0.266236 0
      vertex -1.57769 0.266236 1
    endloop
  endfacet
  facet normal -0.993637 0.112632 0
    outer loop
      vertex -1.57769 0.266236 0
      vertex -1.59726 0.0936558 0
      vertex -1.57769 0.266236 1
    endloop
  endfacet
  facet normal -0.993637 0.112632 0
    outer loop
      vertex -1.57769 0.266236 1
      vertex -1.59726 0.0936558 0
      vertex -1.59726 0.0936558 1
    endloop
  endfacet
  facet normal -0.999991 0.00426504 0
    outer loop
      vertex -1.59726 0.0936558 0
      vertex -1.598 -0.0800277 0
      vertex -1.59726 0.0936558 1
    endloop
  endfacet
  facet normal -0.999991 0.00426504 0
    outer loop
      vertex -1.59726 0.0936558 1
      vertex -1.598 -0.0800277 0
      vertex -1.598 -0.0800277 1
    endloop
  endfacet
  facet normal -0.994561 -0.104152 0
    outer loop
      vertex -1.598 -0.0800277 0
      vertex -1.57991 -0.252768 0
      vertex -1.598 -0.0800277 1
    endloop
  endfacet
  facet normal -0.994561 -0.104152 0
    outer loop
      vertex -1.598 -0.0800277 1
      vertex -1.57991 -0.252768 0
      vertex -1.57991 -0.252768 1
    endloop
  endfacet
  facet normal -0.977412 -0.211342 0
    outer loop
      vertex -1.57991 -0.252768 0
      vertex -1.5432 -0.42253 0
      vertex -1.57991 -0.252768 1
    endloop
  endfacet
  facet normal -0.977412 -0.211342 0
    outer loop
      vertex -1.57991 -0.252768 1
      vertex -1.5432 -0.42253 0
      vertex -1.5432 -0.42253 1
    endloop
  endfacet
  facet normal -0.948745 -0.316042 0
    outer loop
      vertex -1.5432 -0.42253 0
      vertex -1.48831 -0.587313 0
      vertex -1.5432 -0.42253 1
    endloop
  endfacet
  facet normal -0.948745 -0.316042 0
    outer loop
      vertex -1.5432 -0.42253 1
      vertex -1.48831 -0.587313 0
      vertex -1.48831 -0.587313 1
    endloop
  endfacet
  facet normal -0.908899 -0.417017 0
    outer loop
      vertex -1.48831 -0.587313 0
      vertex -1.41588 -0.745175 0
      vertex -1.48831 -0.587313 1
    endloop
  endfacet
  facet normal -0.908899 -0.417017 0
    outer loop
      vertex -1.48831 -0.587313 1
      vertex -1.41588 -0.745175 0
      vertex -1.41588 -0.745175 1
    endloop
  endfacet
  facet normal -0.858342 -0.513078 0
    outer loop
      vertex -1.41588 -0.745175 0
      vertex -1.32677 -0.894256 0
      vertex -1.41588 -0.745175 1
    endloop
  endfacet
  facet normal -0.858342 -0.513078 0
    outer loop
      vertex -1.41588 -0.745175 1
      vertex -1.32677 -0.894256 0
      vertex -1.32677 -0.894256 1
    endloop
  endfacet
  facet normal -0.79767 -0.603094 0
    outer loop
      vertex -1.32677 -0.894256 0
      vertex -1.22202 -1.0328 0
      vertex -1.32677 -0.894256 1
    endloop
  endfacet
  facet normal -0.79767 -0.603094 0
    outer loop
      vertex -1.32677 -0.894256 1
      vertex -1.22202 -1.0328 0
      vertex -1.22202 -1.0328 1
    endloop
  endfacet
  facet normal -0.727599 -0.686002 0
    outer loop
      vertex -1.22202 -1.0328 0
      vertex -1.10287 -1.15917 0
      vertex -1.22202 -1.0328 1
    endloop
  endfacet
  facet normal -0.727599 -0.686002 0
    outer loop
      vertex -1.22202 -1.0328 1
      vertex -1.10287 -1.15917 0
      vertex -1.10287 -1.15917 1
    endloop
  endfacet
  facet normal -0.648954 -0.760827 0
    outer loop
      vertex -1.10287 -1.15917 0
      vertex -0.970724 -1.27189 0
      vertex -1.10287 -1.15917 1
    endloop
  endfacet
  facet normal -0.648954 -0.760827 0
    outer loop
      vertex -1.10287 -1.15917 1
      vertex -0.970724 -1.27189 0
      vertex -0.970724 -1.27189 1
    endloop
  endfacet
  facet normal -0.562663 -0.826687 0
    outer loop
      vertex -0.970724 -1.27189 0
      vertex -0.827141 -1.36961 0
      vertex -0.970724 -1.27189 1
    endloop
  endfacet
  facet normal -0.562663 -0.826687 0
    outer loop
      vertex -0.970724 -1.27189 1
      vertex -0.827141 -1.36961 0
      vertex -0.827141 -1.36961 1
    endloop
  endfacet
  facet normal -0.46974 -0.882805 0
    outer loop
      vertex -0.827141 -1.36961 0
      vertex -0.673811 -1.4512 0
      vertex -0.827141 -1.36961 1
    endloop
  endfacet
  facet normal -0.46974 -0.882805 0
    outer loop
      vertex -0.827141 -1.36961 1
      vertex -0.673811 -1.4512 0
      vertex -0.673811 -1.4512 1
    endloop
  endfacet
  facet normal -0.371283 -0.92852 0
    outer loop
      vertex -0.673811 -1.4512 0
      vertex -0.512541 -1.51569 0
      vertex -0.673811 -1.4512 1
    endloop
  endfacet
  facet normal -0.371283 -0.92852 0
    outer loop
      vertex -0.673811 -1.4512 1
      vertex -0.512541 -1.51569 0
      vertex -0.512541 -1.51569 1
    endloop
  endfacet
  facet normal -0.268449 -0.963294 0
    outer loop
      vertex -0.512541 -1.51569 0
      vertex -0.345232 -1.56231 0
      vertex -0.512541 -1.51569 1
    endloop
  endfacet
  facet normal -0.268449 -0.963294 0
    outer loop
      vertex -0.512541 -1.51569 1
      vertex -0.345232 -1.56231 0
      vertex -0.345232 -1.56231 1
    endloop
  endfacet
  facet normal -0.162454 -0.986716 0
    outer loop
      vertex -0.345232 -1.56231 0
      vertex -0.173854 -1.59053 0
      vertex -0.345232 -1.56231 1
    endloop
  endfacet
  facet normal -0.162454 -0.986716 0
    outer loop
      vertex -0.345232 -1.56231 1
      vertex -0.173854 -1.59053 0
      vertex -0.173854 -1.59053 1
    endloop
  endfacet
  facet normal -0.0545426 -0.998511 0
    outer loop
      vertex -0.173854 -1.59053 0
      vertex -0.000427499 -1.6 0
      vertex -0.173854 -1.59053 1
    endloop
  endfacet
  facet normal -0.0545426 -0.998511 0
    outer loop
      vertex -0.173854 -1.59053 1
      vertex -0.000427499 -1.6 0
      vertex -0.000427499 -1.6 1
    endloop
  endfacet
  facet normal 0.0540096 -0.99854 0
    outer loop
      vertex -0.000427499 -1.6 0
      vertex 0.173004 -1.59062 0
      vertex -0.000427499 -1.6 1
    endloop
  endfacet
  facet normal 0.0540096 -0.99854 0
    outer loop
      vertex -0.000427499 -1.6 1
      vertex 0.173004 -1.59062 0
      vertex 0.173004 -1.59062 1
    endloop
  endfacet
  facet normal 0.161926 -0.986803 0
    outer loop
      vertex 0.173004 -1.59062 0
      vertex 0.344397 -1.5625 0
      vertex 0.173004 -1.59062 1
    endloop
  endfacet
  facet normal 0.161926 -0.986803 0
    outer loop
      vertex 0.173004 -1.59062 1
      vertex 0.344397 -1.5625 0
      vertex 0.344397 -1.5625 1
    endloop
  endfacet
  facet normal 0.267935 -0.963437 0
    outer loop
      vertex 0.344397 -1.5625 0
      vertex 0.511731 -1.51596 0
      vertex 0.344397 -1.5625 1
    endloop
  endfacet
  facet normal 0.267935 -0.963437 0
    outer loop
      vertex 0.344397 -1.5625 1
      vertex 0.511731 -1.51596 0
      vertex 0.511731 -1.51596 1
    endloop
  endfacet
  facet normal 0.370786 -0.928718 0
    outer loop
      vertex 0.511731 -1.51596 0
      vertex 0.673036 -1.45156 0
      vertex 0.511731 -1.51596 1
    endloop
  endfacet
  facet normal 0.370786 -0.928718 0
    outer loop
      vertex 0.511731 -1.51596 1
      vertex 0.673036 -1.45156 0
      vertex 0.673036 -1.45156 1
    endloop
  endfacet
  facet normal 0.469268 -0.883056 0
    outer loop
      vertex 0.673036 -1.45156 0
      vertex 0.826409 -1.37005 0
      vertex 0.673036 -1.45156 1
    endloop
  endfacet
  facet normal 0.469268 -0.883056 0
    outer loop
      vertex 0.673036 -1.45156 1
      vertex 0.826409 -1.37005 0
      vertex 0.826409 -1.37005 1
    endloop
  endfacet
  facet normal 0.562221 -0.826987 0
    outer loop
      vertex 0.826409 -1.37005 0
      vertex 0.970045 -1.2724 0
      vertex 0.826409 -1.37005 1
    endloop
  endfacet
  facet normal 0.562221 -0.826987 0
    outer loop
      vertex 0.826409 -1.37005 1
      vertex 0.970045 -1.2724 0
      vertex 0.970045 -1.2724 1
    endloop
  endfacet
  facet normal 0.648548 -0.761174 0
    outer loop
      vertex 0.970045 -1.2724 0
      vertex 1.10225 -1.15976 0
      vertex 0.970045 -1.2724 1
    endloop
  endfacet
  facet normal 0.648548 -0.761174 0
    outer loop
      vertex 0.970045 -1.2724 1
      vertex 1.10225 -1.15976 0
      vertex 1.10225 -1.15976 1
    endloop
  endfacet
  facet normal 0.727233 -0.686391 0
    outer loop
      vertex 1.10225 -1.15976 0
      vertex 1.22146 -1.03345 0
      vertex 1.10225 -1.15976 1
    endloop
  endfacet
  facet normal 0.727233 -0.686391 0
    outer loop
      vertex 1.10225 -1.15976 1
      vertex 1.22146 -1.03345 0
      vertex 1.22146 -1.03345 1
    endloop
  endfacet
  facet normal 0.797348 -0.60352 0
    outer loop
      vertex 1.22146 -1.03345 0
      vertex 1.32629 -0.894965 0
      vertex 1.22146 -1.03345 1
    endloop
  endfacet
  facet normal 0.797348 -0.60352 0
    outer loop
      vertex 1.22146 -1.03345 1
      vertex 1.32629 -0.894965 0
      vertex 1.32629 -0.894965 1
    endloop
  endfacet
  facet normal 0.858067 -0.513537 0
    outer loop
      vertex 1.32629 -0.894965 0
      vertex 1.41548 -0.745931 0
      vertex 1.32629 -0.894965 1
    endloop
  endfacet
  facet normal 0.858067 -0.513537 0
    outer loop
      vertex 1.32629 -0.894965 1
      vertex 1.41548 -0.745931 0
      vertex 1.41548 -0.745931 1
    endloop
  endfacet
  facet normal 0.908676 -0.417502 0
    outer loop
      vertex 1.41548 -0.745931 0
      vertex 1.48799 -0.588108 0
      vertex 1.41548 -0.745931 1
    endloop
  endfacet
  facet normal 0.908676 -0.417502 0
    outer loop
      vertex 1.41548 -0.745931 1
      vertex 1.48799 -0.588108 0
      vertex 1.48799 -0.588108 1
    endloop
  endfacet
  facet normal 0.948576 -0.316549 0
    outer loop
      vertex 1.48799 -0.588108 0
      vertex 1.54297 -0.423354 0
      vertex 1.48799 -0.588108 1
    endloop
  endfacet
  facet normal 0.948576 -0.316549 0
    outer loop
      vertex 1.48799 -0.588108 1
      vertex 1.54297 -0.423354 0
      vertex 1.54297 -0.423354 1
    endloop
  endfacet
  facet normal 0.977299 -0.211864 0
    outer loop
      vertex 1.54297 -0.423354 0
      vertex 1.57977 -0.253612 0
      vertex 1.54297 -0.423354 1
    endloop
  endfacet
  facet normal 0.977299 -0.211864 0
    outer loop
      vertex 1.54297 -0.423354 1
      vertex 1.57977 -0.253612 0
      vertex 1.57977 -0.253612 1
    endloop
  endfacet
  facet normal 0.994506 -0.104684 0
    outer loop
      vertex 1.57977 -0.253612 0
      vertex 1.59795 -0.0808816 0
      vertex 1.57977 -0.253612 1
    endloop
  endfacet
  facet normal 0.994506 -0.104684 0
    outer loop
      vertex 1.57977 -0.253612 1
      vertex 1.59795 -0.0808816 0
      vertex 1.59795 -0.0808816 1
    endloop
  endfacet
  facet normal 0.999993 0.00373097 0
    outer loop
      vertex 1.59795 -0.0808816 0
      vertex 1.59731 0.0928022 0
      vertex 1.59795 -0.0808816 1
    endloop
  endfacet
  facet normal 0.999993 0.00373097 0
    outer loop
      vertex 1.59795 -0.0808816 1
      vertex 1.59731 0.0928022 0
      vertex 1.59731 0.0928022 1
    endloop
  endfacet
  facet normal 0.993697 0.112101 0
    outer loop
      vertex 1.59731 0.0928022 0
      vertex 1.57784 0.265392 0
      vertex 1.59731 0.0928022 1
    endloop
  endfacet
  facet normal 0.993697 0.112101 0
    outer loop
      vertex 1.59731 0.0928022 1
      vertex 1.57784 0.265392 0
      vertex 1.57784 0.265392 1
    endloop
  endfacet
  facet normal 0.975691 0.21915 0
    outer loop
      vertex 1.57784 0.265392 0
      vertex 1.53977 0.434855 0
      vertex 1.57784 0.265392 1
    endloop
  endfacet
  facet normal 0.975691 0.21915 0
    outer loop
      vertex 1.57784 0.265392 1
      vertex 1.53977 0.434855 0
      vertex 1.53977 0.434855 1
    endloop
  endfacet
  facet normal 0.946188 0.323617 0
    outer loop
      vertex 1.53977 0.434855 0
      vertex 1.48357 0.599194 0
      vertex 1.53977 0.434855 1
    endloop
  endfacet
  facet normal 0.946188 0.323617 0
    outer loop
      vertex 1.53977 0.434855 1
      vertex 1.48357 0.599194 0
      vertex 1.48357 0.599194 1
    endloop
  endfacet
  facet normal 0.905535 0.424271 0
    outer loop
      vertex 1.48357 0.599194 0
      vertex 1.40988 0.756472 0
      vertex 1.48357 0.599194 1
    endloop
  endfacet
  facet normal 0.905535 0.424271 0
    outer loop
      vertex 1.48357 0.599194 1
      vertex 1.40988 0.756472 0
      vertex 1.40988 0.756472 1
    endloop
  endfacet
  facet normal 0.854212 0.519925 0
    outer loop
      vertex 1.40988 0.756472 0
      vertex 1.31957 0.904836 0
      vertex 1.40988 0.756472 1
    endloop
  endfacet
  facet normal 0.854212 0.519925 0
    outer loop
      vertex 1.40988 0.756472 1
      vertex 1.31957 0.904836 0
      vertex 1.31957 0.904836 1
    endloop
  endfacet
  facet normal 0.792823 0.609452 0
    outer loop
      vertex 1.31957 0.904836 0
      vertex 1.21372 1.04254 0
      vertex 1.31957 0.904836 1
    endloop
  endfacet
  facet normal 0.792823 0.609452 0
    outer loop
      vertex 1.31957 0.904836 1
      vertex 1.21372 1.04254 0
      vertex 1.21372 1.04254 1
    endloop
  endfacet
  facet normal 0.722091 0.691798 0
    outer loop
      vertex 1.21372 1.04254 0
      vertex 1.09357 1.16795 0
      vertex 1.21372 1.04254 1
    endloop
  endfacet
  facet normal 0.722091 0.691798 0
    outer loop
      vertex 1.21372 1.04254 1
      vertex 1.09357 1.16795 0
      vertex 1.09357 1.16795 1
    endloop
  endfacet
  facet normal 0.64285 0.765992 0
    outer loop
      vertex 1.09357 1.16795 0
      vertex 0.960524 1.27961 0
      vertex 1.09357 1.16795 1
    endloop
  endfacet
  facet normal 0.64285 0.765992 0
    outer loop
      vertex 1.09357 1.16795 1
      vertex 0.960524 1.27961 0
      vertex 0.960524 1.27961 1
    endloop
  endfacet
  facet normal 0.556035 0.831159 0
    outer loop
      vertex 0.960524 1.27961 0
      vertex 0.816164 1.37618 0
      vertex 0.960524 1.27961 1
    endloop
  endfacet
  facet normal 0.556035 0.831159 0
    outer loop
      vertex 0.960524 1.27961 1
      vertex 0.816164 1.37618 0
      vertex 0.816164 1.37618 1
    endloop
  endfacet
  facet normal 0.462667 0.886532 0
    outer loop
      vertex 0.816164 1.37618 0
      vertex 0.662187 1.45654 0
      vertex 0.816164 1.37618 1
    endloop
  endfacet
  facet normal 0.462667 0.886532 0
    outer loop
      vertex 0.816164 1.37618 1
      vertex 0.662187 1.45654 0
      vertex 0.662187 1.45654 1
    endloop
  endfacet
  facet normal 0.363847 0.931459 0
    outer loop
      vertex 0.662187 1.45654 0
      vertex 0.500406 1.51973 0
      vertex 0.662187 1.45654 1
    endloop
  endfacet
  facet normal 0.363847 0.931459 0
    outer loop
      vertex 0.662187 1.45654 1
      vertex 0.500406 1.51973 0
      vertex 0.500406 1.51973 1
    endloop
  endfacet
  facet normal 0 0 1
    outer loop
      vertex 0.500406 8 1
      vertex -0.499594 8 1
      vertex 0.500406 1.51973 1
    endloop
  endfacet
  facet normal 0 0 1
    outer loop
      vertex -0.499594 8 1
      vertex -0.499594 1.52 1
      vertex 0.500406 1.51973 1
    endloop
  endfacet
  facet normal 0 0 1
    outer loop
      vertex 0.500406 1.51973 1
      vertex -0.499594 1.52 1
      vertex 0.662187 1.45654 1
    endloop
  endfacet
  facet normal 0 0 1
    outer loop
      vertex -0.512541 -1.51569 1
      vertex -0.345232 -1.56231 1
      vertex -1.48325 0.599987 1
    endloop
  endfacet
  facet normal 0 0 1
    outer loop
      vertex -1.48325 0.599987 1
      vertex -0.345232 -1.56231 1
      vertex -1.40947 0.757225 1
    endloop
  endfacet
  facet normal 0 0 1
    outer loop
      vertex 1.59731 0.0928022 1
      vertex 0.960524 1.27961 1
      vertex 0.816164 1.37618 1
    endloop
  endfacet
  facet normal 0 0 1
    outer loop
      vertex 1.10225 -1.15976 1
      vertex 1.22146 -1.03345 1
      vertex -0.661408 1.45689 1
    endloop
  endfacet
  facet normal 0 0 1
    outer loop
      vertex 1.22146 -1.03345 1
      vertex 1.32629 -0.894965 1
      vertex -0.661408 1.45689 1
    endloop
  endfacet
  facet normal 0 0 1
    outer loop
      vertex 0.673036 -1.45156 1
      vertex 0.826409 -1.37005 1
      vertex -0.661408 1.45689 1
    endloop
  endfacet
  facet normal 0 0 1
    outer loop
      vertex 0.826409 -1.37005 1
      vertex 0.970045 -1.2724 1
      vertex -0.661408 1.45689 1
    endloop
  endfacet
  facet normal 0 0 1
    outer loop
      vertex -0.661408 1.45689 1
      vertex 0.970045 -1.2724 1
      vertex 1.10225 -1.15976 1
    endloop
  endfacet
  facet normal 0 0 1
    outer loop
      vertex -1.57991 -0.252768 1
      vertex -1.5432 -0.42253 1
      vertex -1.48325 0.599987 1
    endloop
  endfacet
  facet normal 0 0 1
    outer loop
      vertex 0.173004 -1.59062 1
      vertex -0.661408 1.45689 1
      vertex -0.000427499 -1.6 1
    endloop
  endfacet
  facet normal 0 0 1
    outer loop
      vertex -0.661408 1.45689 1
      vertex -0.173854 -1.59053 1
      vertex -0.000427499 -1.6 1
    endloop
  endfacet
  facet normal 0 0 1
    outer loop
      vertex 0.173004 -1.59062 1
      vertex 0.344397 -1.5625 1
      vertex -0.661408 1.45689 1
    endloop
  endfacet
  facet normal 0 0 1
    outer loop
      vertex 0.344397 -1.5625 1
      vertex 0.511731 -1.51596 1
      vertex -0.661408 1.45689 1
    endloop
  endfacet
  facet normal 0 0 1
    outer loop
      vertex -0.661408 1.45689 1
      vertex 0.511731 -1.51596 1
      vertex 0.673036 -1.45156 1
    endloop
  endfacet
  facet normal 0 0 1
    outer loop
      vertex 1.59731 0.0928022 1
      vertex 1.57784 0.265392 1
      vertex 1.53977 0.434855 1
    endloop
  endfacet
  facet normal 0 0 1
    outer loop
      vertex 1.53977 0.434855 1
      vertex 1.48357 0.599194 1
      vertex 1.59731 0.0928022 1
    endloop
  endfacet
  facet normal 0 0 1
    outer loop
      vertex 1.48357 0.599194 1
      vertex 1.40988 0.756472 1
      vertex 1.59731 0.0928022 1
    endloop
  endfacet
  facet normal 0 0 1
    outer loop
      vertex 1.59731 0.0928022 1
      vertex 1.40988 0.756472 1
      vertex 1.31957 0.904836 1
    endloop
  endfacet
  facet normal 0 0 1
    outer loop
      vertex 1.31957 0.904836 1
      vertex 1.21372 1.04254 1
      vertex 1.59731 0.0928022 1
    endloop
  endfacet
  facet normal 0 0 1
    outer loop
      vertex 1.21372 1.04254 1
      vertex 1.09357 1.16795 1
      vertex 1.59731 0.0928022 1
    endloop
  endfacet
  facet normal 0 0 1
    outer loop
      vertex 1.59731 0.0928022 1
      vertex 1.09357 1.16795 1
      vertex 0.960524 1.27961 1
    endloop
  endfacet
  facet normal 0 0 1
    outer loop
      vertex 1.32629 -0.894965 1
      vertex 1.41548 -0.745931 1
      vertex -0.661408 1.45689 1
    endloop
  endfacet
  facet normal 0 0 1
    outer loop
      vertex 1.41548 -0.745931 1
      vertex 1.48799 -0.588108 1
      vertex -0.661408 1.45689 1
    endloop
  endfacet
  facet normal 0 0 1
    outer loop
      vertex -0.661408 1.45689 1
      vertex 1.48799 -0.588108 1
      vertex 1.54297 -0.423354 1
    endloop
  endfacet
  facet normal 0 0 1
    outer loop
      vertex 0.816164 1.37618 1
      vertex 0.662187 1.45654 1
      vertex 1.59731 0.0928022 1
    endloop
  endfacet
  facet normal 0 0 1
    outer loop
      vertex 0.662187 1.45654 1
      vertex -0.499594 1.52 1
      vertex 1.59731 0.0928022 1
    endloop
  endfacet
  facet normal 0 0 1
    outer loop
      vertex 1.59731 0.0928022 1
      vertex -0.499594 1.52 1
      vertex 1.59795 -0.0808816 1
    endloop
  endfacet
  facet normal 0 0 1
    outer loop
      vertex -0.499594 1.52 1
      vertex -0.661408 1.45689 1
      vertex 1.59795 -0.0808816 1
    endloop
  endfacet
  facet normal 0 0 1
    outer loop
      vertex 1.59795 -0.0808816 1
      vertex -0.661408 1.45689 1
      vertex 1.57977 -0.253612 1
    endloop
  endfacet
  facet normal 0 0 1
    outer loop
      vertex -0.661408 1.45689 1
      vertex 1.54297 -0.423354 1
      vertex 1.57977 -0.253612 1
    endloop
  endfacet
  facet normal 0 0 1
    outer loop
      vertex -0.95984 1.28012 1
      vertex -1.09294 1.16854 1
      vertex -0.345232 -1.56231 1
    endloop
  endfacet
  facet normal 0 0 1
    outer loop
      vertex -0.173854 -1.59053 1
      vertex -0.661408 1.45689 1
      vertex -0.345232 -1.56231 1
    endloop
  endfacet
  facet normal 0 0 1
    outer loop
      vertex -0.661408 1.45689 1
      vertex -0.815428 1.37662 1
      vertex -0.345232 -1.56231 1
    endloop
  endfacet
  facet normal 0 0 1
    outer loop
      vertex -0.345232 -1.56231 1
      vertex -0.815428 1.37662 1
      vertex -0.95984 1.28012 1
    endloop
  endfacet
  facet normal 0 0 1
    outer loop
      vertex -1.09294 1.16854 1
      vertex -1.21316 1.04319 1
      vertex -0.345232 -1.56231 1
    endloop
  endfacet
  facet normal 0 0 1
    outer loop
      vertex -1.21316 1.04319 1
      vertex -1.31909 0.905541 1
      vertex -0.345232 -1.56231 1
    endloop
  endfacet
  facet normal 0 0 1
    outer loop
      vertex -0.345232 -1.56231 1
      vertex -1.31909 0.905541 1
      vertex -1.40947 0.757225 1
    endloop
  endfacet
  facet normal 0 0 1
    outer loop
      vertex -1.5432 -0.42253 1
      vertex -1.48831 -0.587313 1
      vertex -1.48325 0.599987 1
    endloop
  endfacet
  facet normal 0 0 1
    outer loop
      vertex -1.48831 -0.587313 1
      vertex -1.41588 -0.745175 1
      vertex -1.48325 0.599987 1
    endloop
  endfacet
  facet normal 0 0 1
    outer loop
      vertex -1.48325 0.599987 1
      vertex -1.41588 -0.745175 1
      vertex -1.32677 -0.894256 1
    endloop
  endfacet
  facet normal 0 0 1
    outer loop
      vertex -0.970724 -1.27189 1
      vertex -0.827141 -1.36961 1
      vertex -1.48325 0.599987 1
    endloop
  endfacet
  facet normal 0 0 1
    outer loop
      vertex -0.827141 -1.36961 1
      vertex -0.673811 -1.4512 1
      vertex -1.48325 0.599987 1
    endloop
  endfacet
  facet normal 0 0 1
    outer loop
      vertex -1.48325 0.599987 1
      vertex -0.673811 -1.4512 1
      vertex -0.512541 -1.51569 1
    endloop
  endfacet
  facet normal 0 0 1
    outer loop
      vertex -1.48325 0.599987 1
      vertex -1.53954 0.435678 1
      vertex -1.57991 -0.252768 1
    endloop
  endfacet
  facet normal 0 0 1
    outer loop
      vertex -1.53954 0.435678 1
      vertex -1.57769 0.266236 1
      vertex -1.57991 -0.252768 1
    endloop
  endfacet
  facet normal 0 0 1
    outer loop
      vertex -1.57991 -0.252768 1
      vertex -1.57769 0.266236 1
      vertex -1.598 -0.0800277 1
    endloop
  endfacet
  facet normal 0 0 1
    outer loop
      vertex -1.57769 0.266236 1
      vertex -1.59726 0.0936558 1
      vertex -1.598 -0.0800277 1
    endloop
  endfacet
  facet normal 0 0 1
    outer loop
      vertex -1.32677 -0.894256 1
      vertex -1.22202 -1.0328 1
      vertex -1.48325 0.599987 1
    endloop
  endfacet
  facet normal 0 0 1
    outer loop
      vertex -1.22202 -1.0328 1
      vertex -1.10287 -1.15917 1
      vertex -1.48325 0.599987 1
    endloop
  endfacet
  facet normal 0 0 1
    outer loop
      vertex -1.48325 0.599987 1
      vertex -1.10287 -1.15917 1
      vertex -0.970724 -1.27189 1
    endloop
  endfacet
  facet normal 1 0 0
    outer loop
      vertex 0.500406 8 1
      vertex 0.500406 1.51973 1
      vertex 0.500406 8 0
    endloop
  endfacet
  facet normal 1 0 0
    outer loop
      vertex 0.500406 1.51973 1
      vertex 0.500406 1.51973 0
      vertex 0.500406 8 0
    endloop
  endfacet
endsolid Mesh
